<?xml version="1.0" standalone="no"?>
<svg viewBox="0 0 200 200" xmlns="http://www.w3.org/2000/svg">
  <path fill="#BCDF9B" d="M37.1,-56.6C49.8,-49.6,62.9,-42.2,67.8,-31.1C72.7,-19.9,69.5,-5.2,62,5C54.4,15.2,42.6,21,34.7,30C26.7,39,22.7,51.3,15.6,53.4C8.6,55.6,-1.5,47.6,-15.9,46.8C-30.3,45.9,-49,52.3,-56.9,47.1C-64.9,41.9,-62.1,25.2,-59.9,11.3C-57.6,-2.5,-55.9,-13.6,-53.4,-26.7C-51,-39.8,-48,-54.8,-39,-63.4C-29.9,-72,-15,-74.2,-1.4,-72.1C12.2,-69.9,24.5,-63.5,37.1,-56.6Z" transform="translate(100 100)" />
</svg>
