<?xml version="1.0" standalone="no"?>
<svg viewBox="0 0 200 200" xmlns="http://www.w3.org/2000/svg">
  <path fill="#FFDA61" d="M25.5,-48.2C34.2,-39.1,43.1,-34.6,45.5,-27.3C47.8,-20,43.7,-10,45.1,0.8C46.6,11.7,53.7,23.4,52.3,32.3C50.8,41.1,40.7,47.1,30.6,51C20.4,54.9,10.2,56.6,1.5,53.9C-7.1,51.2,-14.3,44.2,-20.7,38.1C-27.1,32.1,-32.7,27.1,-40.8,21C-48.9,14.8,-59.5,7.4,-59.8,-0.2C-60.1,-7.8,-50.3,-15.6,-42,-21.4C-33.7,-27.2,-26.9,-31,-20.2,-41.2C-13.4,-51.4,-6.7,-68,0.8,-69.5C8.4,-70.9,16.8,-57.3,25.5,-48.2Z" transform="translate(100 100)" />
</svg>
