<?xml version="1.0" standalone="no"?>
<svg viewBox="0 0 200 200" xmlns="http://www.w3.org/2000/svg">
  <path fill="#0F9D9F" d="M26.8,-46.4C35.2,-41.6,42.7,-35.3,46.5,-27.3C50.3,-19.4,50.3,-9.7,55.3,2.9C60.2,15.4,70.1,30.8,69.4,44.2C68.8,57.6,57.6,69,44.3,73.7C30.9,78.4,15.5,76.4,3.4,70.5C-8.6,64.6,-17.3,54.7,-29.1,49.2C-41,43.6,-56.1,42.4,-68.4,34.9C-80.6,27.4,-90,13.7,-91.7,-1C-93.4,-15.7,-87.4,-31.3,-75.6,-39.5C-63.7,-47.7,-46.1,-48.5,-32.5,-50.3C-18.9,-52.2,-9.5,-55.2,-0.1,-54.9C9.2,-54.7,18.4,-51.3,26.8,-46.4Z" transform="translate(100 100)" />
</svg>
