<svg height="512" viewBox="0 0 60 60" width="512" xmlns="http://www.w3.org/2000/svg"><g id="Page-1" fill="none" fillRule="evenodd"><g id="042---Flea-Treatment" fill="rgb(0,0,0)" fillRule="nonzero"><path id="Shape" d="m48.434 1.6c-.7740297-1.46493211-2.5890643-2.02502296-4.054-1.251l-1.768.934c-.0244464.0175906-.0478213.03662443-.07.057-.022.014-.049.016-.069.032l-27.673 21.104c-1.1699918.8868604-1.5233435 2.4917717-.834 3.788l.614 1.161-12.981 7c-1.46397303.7743667-2.02349703 2.5885673-1.25 4.053l1.87 3.536c.77786632 1.4647933 2.59511738 2.0228115 4.061 1.247l12.974-7 1.052 1.99c.7024991 1.3207165 2.268541 1.9248099 3.676 1.418l32.526-11.809c.011 0 .019-.014.03-.018.032-.013.065-.021.1-.037l1.768-.936c1.46456-.7743853 2.0241751-2.5893288 1.25-4.054zm2.516 26.151-11.428-21.615 3.224-2.458 12 22.7zm-9.489 3.449-10-18.914 6.448-4.918 11.143 21.073zm-36.123 10.3c-.23443883.1241867-.50861782.1501243-.76218566.0721034-.25356785-.0780209-.46574016-.253605-.58981434-.4881034l-1.87-3.536c-.12454036-.2357066-.14981077-.5113837-.07019873-.7658043.07961204-.2544205.25751557-.4665214.49419873-.5891957l12.974-7 2.8 5.3zm17.962-3.707c-.4696512.1668216-.990715-.0346337-1.226-.474l-1.523-2.879-3.739-7.072-1.076-2.035c-.2292303-.4325803-.1115778-.9675183.278-1.264l13.834-10.555 9.714 18.373zm34.655-13.281c-.0773569.2539401-.2530756.4663869-.488.59l-.884.467-12.152-22.985.884-.468c.4882324-.25778161 1.0929963-.07111504 1.351.417l11.218 21.218c.1247981.2338702.1503814.5080802.071.761z"/><path id="Shape" d="m4.293 46.293c-.175.175-4.293 4.343-4.293 8.707 0 2.7614237 2.23857625 5 5 5s5-2.2385763 5-5c0-4.364-4.118-8.532-4.293-8.707-.39049985-.3903819-1.02350015-.3903819-1.414 0zm.707 11.707c-1.65685425 0-3-1.3431458-3-3 0-2.557 1.925-5.216 3-6.5 1.076 1.283 3 3.937 3 6.5 0 1.6568542-1.34314575 3-3 3z"/></g></g></svg>