<?xml version="1.0"?>
<svg xmlns="http://www.w3.org/2000/svg" version="1.1" width="512" height="512" x="0" y="0" viewBox="0 0 511.998 511.998" style="enable-background:new 0 0 512 512" class="">
<g><g xmlns="http://www.w3.org/2000/svg">
<path d="m255.999 468.354c-63.939 0-135.143-3.546-170.838-45.879-11.913-14.129-24.782-38.739-18.439-75.745 2.706-15.785 7.073-30.945 12.876-45.276 2.501-6.177-.863-13.222-7.293-14.97-34.876-9.483-61.853-40.885-64.579-77.418-3.645-48.838 37.06-85.949 84.736-79.213 6.449.911 12.261-3.817 13.067-10.28 5.408-43.401 39.511-75.929 81.01-75.929 23.514 0 45.191 10.389 60.943 27.489 4.573 4.964 12.461 4.964 17.034 0 15.752-17.1 37.429-27.489 60.943-27.489 41.723 0 75.608 32.747 81.007 75.928.808 6.464 6.617 11.193 13.068 10.283 47.62-6.721 88.387 30.311 84.738 79.212-2.725 36.511-29.683 67.932-64.579 77.418-6.43 1.748-9.793 8.793-7.292 14.97 5.802 14.331 10.169 29.491 12.875 45.275 6.344 37.007-6.525 61.617-18.439 75.746-35.695 42.333-106.899 45.878-170.838 45.878z" fill="#7ed957" data-original="#daa985" style="" class=""/>
<path d="m405.032 441.339c-229.349-55.539-278.661-306.034-235.009-395.912-33.75 7.319-59.824 36.669-64.494 74.146-.806 6.463-6.617 11.191-13.067 10.28-47.676-6.736-88.381 30.375-84.736 79.213 2.726 36.533 29.702 67.935 64.579 77.418 6.43 1.748 9.794 8.793 7.293 14.97-5.802 14.331-10.17 29.491-12.876 45.276-6.343 37.006 6.526 61.616 18.439 75.745 35.694 42.334 106.899 45.879 170.838 45.879 52.736 0 110.412-2.416 149.033-27.015z" fill="#7ed957" data-original="#cb8a5a" style="" class=""/>
<path d="m255.999 429.543c70.542 0 163.416-3.954 151.022-76.255-13.928-81.244-80.48-140.254-151.022-140.254-70.541 0-137.094 59.01-151.022 140.254-12.395 72.3 80.48 76.255 151.022 76.255z" fill="#fbf1cf" data-original="#fbf1cf" style=""/>
<ellipse cx="188.8" cy="134.469" fill="#fae0bd" rx="44.958" ry="52.209" transform="matrix(.985 -.174 .174 .985 -20.483 34.829)" data-original="#fae0bd" style="" class=""/>
<ellipse cx="87.642" cy="209.253" fill="#fae0bd" rx="38.136" ry="44.287" transform="matrix(.707 -.707 .707 .707 -122.294 123.259)" data-original="#fae0bd" style="" class=""/>
<ellipse cx="323.197" cy="134.469" fill="#fbf1cf" rx="52.209" ry="44.958" transform="matrix(.174 -.985 .985 .174 134.649 429.406)" data-original="#fbf1cf" style=""/>
<ellipse cx="424.356" cy="209.253" fill="#fbf1cf" rx="44.287" ry="38.136" transform="matrix(.707 -.707 .707 .707 -23.674 361.354)" data-original="#fbf1cf" style=""/>
<path d="m190.48 230.301c-42.551 23.219-76.078 68.008-85.503 122.987-12.395 72.301 80.48 76.255 151.022 76.255 21.168 0 44.346-.359 66.089-2.811-121.735-20.134-144.691-128.615-131.608-196.431z" fill="#fae0bd" data-original="#fae0bd" style="" class=""/>
<g><g fill="#e7889d">
<ellipse cx="175.971" cy="350.259" rx="23.515" ry="29.529" transform="matrix(.002 -1 1 .002 -174.673 525.463)" fill="#5e17eb" data-original="#e7889d" style="" class=""/><ellipse cx="336.027" cy="350.609" rx="23.515" ry="29.529" transform="matrix(.002 -1 1 .002 -15.318 685.867)" fill="#5e17eb" data-original="#e7889d" style="" class=""/></g></g><path d="m333.566 75.667c-14.007-2.473-28.22 1.478-40.012 11.118-11.465 9.373-19.284 23.073-22.018 38.574-5.551 31.485 11.835 62.718 41.293 67.911 29.135 5.142 56.443-18.015 62.029-49.692 5.718-32.423-12.806-62.888-41.292-67.911zm26.52 65.306c-4.281 24.278-24.304 41.116-44.652 37.526-21.29-3.754-33.196-27.448-29.125-50.534 2.109-11.966 8.054-22.466 16.739-29.566 6.772-5.536 14.563-8.442 22.404-8.442 1.837 0 3.678.16 5.509.482 20.341 3.587 33.406 26.257 29.125 50.534zm-160.918 52.298c29.561-5.211 46.822-36.549 41.292-67.911-5.552-31.487-32.572-54.886-62.029-49.692-29.561 5.211-46.822 36.549-41.292 67.911 5.559 31.527 32.608 54.879 62.029 49.692zm-18.132-102.832c21.636-3.808 40.647 14.805 44.652 37.526 4.09 23.186-7.918 46.795-29.125 50.534-21.252 3.739-40.572-14.382-44.652-37.526-4.089-23.186 7.918-46.795 29.125-50.534zm-130.013 82.196c-17.793 17.793-15.842 48.696 4.349 68.889 19.074 19.073 50.061 23.176 68.888 4.349 18.343-18.344 15.33-49.208-4.35-68.889-20.19-20.19-51.093-22.141-68.887-4.349zm62.631 62.63c-12.67 12.671-34.268 9.059-47.675-4.348-14.343-14.344-16.294-35.731-4.349-47.676 12.577-12.578 34.115-9.21 47.675 4.35 7.095 7.095 11.382 16.078 12.069 25.296.657 8.796-2.085 16.744-7.72 22.378zm272.234 207.793c-20.882 9.243-51.071 17.797-129.889 17.797-62.252 0-131.482-3.34-165.104-43.215-10.888-12.912-22.637-35.477-16.781-69.642 2.568-14.979 6.752-29.691 12.436-43.729 4.193-10.357-1.534-22.1-12.277-25.021-32.326-8.79-56.615-37.879-59.067-70.739-3.281-43.962 33.184-77.298 76.208-71.229 10.761 1.523 20.257-6.333 21.558-16.778 1.031-8.271 3.209-16.25 6.474-23.713 1.66-3.795-.07-8.217-3.865-9.877-3.795-1.658-8.217.071-9.877 3.865-3.844 8.787-6.407 18.164-7.616 27.87-.286 2.293-2.281 4.112-4.575 3.78-52.747-7.447-97.24 33.938-93.264 87.199 2.917 39.086 31.739 73.668 70.09 84.097 2.055.559 3.136 2.872 2.309 4.918-6.087 15.032-10.567 30.786-13.316 46.824-6.83 39.846 7.159 66.501 20.097 81.846 37.769 44.794 110.946 48.545 176.572 48.545 44.925 0 96.185-1.475 135.96-19.08 3.788-1.677 5.499-6.107 3.823-9.895-1.679-3.789-6.111-5.499-9.896-3.823zm32.598-320.63c-2.297.338-4.292-1.494-4.579-3.787-5.916-47.315-43.314-82.497-88.449-82.497-25.09 0-48.693 10.621-66.459 29.908-1.602 1.739-4.396 1.741-6.001 0-17.766-19.287-41.369-29.908-66.459-29.908-21.636 0-42.447 8.234-58.6 23.187-3.039 2.813-3.223 7.559-.409 10.599s7.559 3.224 10.599.409c13.372-12.378 30.564-19.194 48.41-19.194 20.85 0 40.534 8.903 55.426 25.07 7.536 8.182 20.53 8.184 28.066 0 14.893-16.167 34.577-25.07 55.427-25.07 37.858 0 68.629 29.885 73.565 69.358 1.302 10.41 10.751 18.295 21.559 16.779 43.116-6.085 79.484 27.359 76.21 71.227-2.453 32.862-26.742 61.951-59.067 70.739-10.737 2.92-16.472 14.66-12.277 25.021 5.683 14.036 9.867 28.749 12.435 43.729 5.08 29.635-2.225 57.085-23.911 77.091-3.044 2.809-3.236 7.554-.427 10.599 2.813 3.048 7.559 3.231 10.598.427 23.243-21.441 35.045-52.607 28.524-90.65-2.749-16.038-7.229-31.792-13.315-46.823-.828-2.046.253-4.359 2.308-4.918 38.352-10.426 67.174-45.008 70.091-84.097 3.989-53.468-40.726-94.61-93.265-87.199zm-30.749 123.443c18.506 18.507 49.399 15.141 68.888-4.348 20.191-20.192 22.143-51.096 4.35-68.89-17.794-17.793-48.697-15.84-68.888 4.35-19.338 19.339-22.987 50.253-4.35 68.888zm14.956-58.28c8.029-8.029 18.263-12.175 27.814-12.175 7.512 0 14.603 2.566 19.861 7.825 11.944 11.944 9.993 33.332-4.35 47.675-13.473 13.474-35.057 16.966-47.675 4.349-12.64-12.638-9.097-34.228 4.35-47.674zm11.72 164.43c-6.952-40.553-27.056-77.792-56.608-104.857-60.513-55.422-143.08-55.44-203.613 0-29.552 27.065-49.656 64.305-56.607 104.857-3.461 20.19.413 37.103 11.515 50.27 27.037 32.065 90.002 34.751 146.899 34.751 56.896 0 119.862-2.686 146.899-34.751 11.102-13.167 14.976-30.08 11.515-50.27zm-22.983 40.601c-24.806 29.42-96.77 29.42-135.431 29.42s-110.626 0-135.432-29.42c-8.233-9.766-10.916-22.217-8.198-38.066 13.626-79.488 78.472-134.022 143.63-134.022 65.393 0 130.046 54.787 143.63 134.022 2.717 15.85.035 28.301-8.199 38.066zm-197.966-79.379c-4.142 0-7.5 3.357-7.5 7.5v12c0 4.143 3.358 7.5 7.5 7.5s7.5-3.357 7.5-7.5v-12c0-4.142-3.358-7.5-7.5-7.5zm124.897 0c-4.142 0-7.5 3.357-7.5 7.5v12c0 4.143 3.358 7.5 7.5 7.5s7.5-3.357 7.5-7.5v-12c0-4.142-3.358-7.5-7.5-7.5zm-33.355 19.156c-4.142 0-7.5 3.357-7.5 7.5 0 3.835-3.12 6.955-6.955 6.955-3.836 0-6.956-3.12-6.956-6.955 0-4.143-3.358-7.5-7.5-7.5s-7.5 3.357-7.5 7.5c0 3.835-3.12 6.955-6.956 6.955-3.835 0-6.956-3.12-6.956-6.955 0-4.143-3.358-7.5-7.5-7.5s-7.5 3.357-7.5 7.5c0 12.107 9.849 21.955 21.956 21.955 5.531 0 10.591-2.056 14.456-5.443 3.865 3.388 8.925 5.443 14.456 5.443 12.106 0 21.955-9.849 21.955-21.955 0-4.143-3.358-7.5-7.5-7.5z" fill="#000000" data-original="#000000" style=""/></g></g></svg>
