<?xml version="1.0"?>
<svg xmlns="http://www.w3.org/2000/svg" xmlns:xlink="http://www.w3.org/1999/xlink" xmlns:svgjs="http://svgjs.com/svgjs" version="1.1" width="512" height="512" x="0" y="0" viewBox="0 0 512 512" style="enable-background:new 0 0 512 512" xml:space="preserve"><g>
<g xmlns="http://www.w3.org/2000/svg">
	<g>
		<path d="M402.763,145.455H109.532c-20.55,0-36.655,16.099-36.655,36.655v293.236c0,20.55,16.099,36.655,36.655,36.655h293.231    c20.562,0,36.66-16.105,36.66-36.655V182.109C439.423,161.553,423.318,145.455,402.763,145.455z M421.969,475.345    c0,10.944-8.256,19.2-19.206,19.2H109.532c-10.944,0-19.2-8.256-19.2-19.2V182.109c0-10.95,8.256-19.2,19.2-19.2h293.231    c10.95,0,19.206,8.256,19.206,19.2V475.345z" fill="#c6a49a" data-original="#000000" style=""/>
	</g>
</g>
<g xmlns="http://www.w3.org/2000/svg">
	<g>
		<path d="M256.15,87.273c-4.823,0-8.727,3.904-8.727,8.727v58.182c0,4.823,3.904,8.727,8.727,8.727    c4.817,0,8.721-3.904,8.727-8.727V96C264.878,91.177,260.974,87.273,256.15,87.273z" fill="#c6a49a" data-original="#000000" style=""/>
	</g>
</g>
<g xmlns="http://www.w3.org/2000/svg">
	<g>
		<path d="M256.15,232.727c-4.823,0-8.727,3.904-8.727,8.727v87.273c0,4.817,3.904,8.727,8.727,8.727    c4.817,0,8.721-3.91,8.727-8.727v-87.273C264.878,236.631,260.974,232.727,256.15,232.727z" fill="#c6a49a" data-original="#000000" style=""/>
	</g>
</g>
<g xmlns="http://www.w3.org/2000/svg">
	<g>
		<path d="M256.15,174.545c-85.021,0-154.182,69.167-154.182,154.182s69.167,154.182,154.182,154.182    c85.021,0,154.182-69.167,154.182-154.182S341.172,174.545,256.15,174.545z M256.15,465.455    c-75.392,0-136.727-61.335-136.727-136.727S180.758,192,256.15,192s136.727,61.335,136.727,136.727    S331.542,465.455,256.15,465.455z" fill="#c6a49a" data-original="#000000" style=""/>
	</g>
</g>
<g xmlns="http://www.w3.org/2000/svg">
	<g>
		<path d="M256.15,174.545c-4.823,0-8.727,3.904-8.727,8.727v29.091c0,4.823,3.904,8.727,8.727,8.727    c4.817,0,8.721-3.904,8.727-8.727v-29.091C264.878,178.449,260.974,174.545,256.15,174.545z" fill="#c6a49a" data-original="#000000" style=""/>
	</g>
</g>
<g xmlns="http://www.w3.org/2000/svg">
	<g>
		<path d="M256.15,436.364c-4.823,0-8.727,3.91-8.727,8.727v29.091c0,4.818,3.904,8.727,8.727,8.727c4.817,0,8.721-3.91,8.727-8.727    v-29.091C264.878,440.273,260.974,436.364,256.15,436.364z" fill="#c6a49a" data-original="#000000" style=""/>
	</g>
</g>
<g xmlns="http://www.w3.org/2000/svg">
	<g>
		<path d="M139.787,320h-29.091c-4.823,0-8.727,3.91-8.727,8.727s3.904,8.727,8.727,8.727h29.091c4.817,0,8.727-3.91,8.727-8.727    S144.61,320,139.787,320z" fill="#c6a49a" data-original="#000000" style=""/>
	</g>
</g>
<g xmlns="http://www.w3.org/2000/svg">
	<g>
		<path d="M401.605,320h-29.091c-4.818,0-8.727,3.91-8.727,8.727s3.91,8.727,8.727,8.727h29.091c4.817,0,8.727-3.91,8.727-8.727    S406.422,320,401.605,320z" fill="#c6a49a" data-original="#000000" style=""/>
	</g>
</g>
<g xmlns="http://www.w3.org/2000/svg">
	<g>
		<path d="M180.281,240.524l-20.945-20.945c-3.409-3.409-8.931-3.409-12.34,0c-3.409,3.404-3.409,8.937,0,12.34l20.945,20.945    c1.705,1.705,3.939,2.554,6.173,2.554s4.468-0.855,6.167-2.554C183.691,249.46,183.691,243.927,180.281,240.524z" fill="#c6a49a" data-original="#000000" style=""/>
	</g>
</g>
<g xmlns="http://www.w3.org/2000/svg">
	<g>
		<path d="M365.294,425.542l-20.945-20.951c-3.409-3.409-8.931-3.409-12.34,0c-3.409,3.404-3.409,8.931,0,12.34l20.945,20.951    c1.705,1.705,3.939,2.554,6.173,2.554c2.234,0,4.468-0.849,6.167-2.554C368.703,434.473,368.703,428.951,365.294,425.542z" fill="#c6a49a" data-original="#000000" style=""/>
	</g>
</g>
<g xmlns="http://www.w3.org/2000/svg">
	<g>
		<path d="M180.281,404.591c-3.409-3.409-8.937-3.409-12.34,0l-20.945,20.951c-3.409,3.409-3.409,8.931,0,12.34    c1.705,1.705,3.939,2.554,6.173,2.554c2.234,0,4.468-0.849,6.167-2.554l20.945-20.951    C183.691,413.521,183.691,408,180.281,404.591z" fill="#c6a49a" data-original="#000000" style=""/>
	</g>
</g>
<g xmlns="http://www.w3.org/2000/svg">
	<g>
		<path d="M365.3,219.578c-3.409-3.409-8.931-3.409-12.34,0l-20.945,20.945c-3.409,3.409-3.409,8.937,0,12.34    c1.705,1.705,3.939,2.554,6.173,2.554c2.234,0,4.463-0.855,6.167-2.554l20.945-20.945    C368.709,228.509,368.709,222.982,365.3,219.578z" fill="#c6a49a" data-original="#000000" style=""/>
	</g>
</g>
<g xmlns="http://www.w3.org/2000/svg">
	<g>
		<path d="M256.15,290.909c-20.852,0-37.818,16.966-37.818,37.818s16.966,37.818,37.818,37.818s37.818-16.966,37.818-37.818    S277.003,290.909,256.15,290.909z M256.15,349.091c-11.229,0-20.364-9.135-20.364-20.364c0-11.229,9.135-20.364,20.364-20.364    c11.229,0,20.364,9.135,20.364,20.364C276.514,339.956,267.38,349.091,256.15,349.091z" fill="#c6a49a" data-original="#000000" style=""/>
	</g>
</g>
<g xmlns="http://www.w3.org/2000/svg">
	<g>
		<path d="M508.374,12.48C505.233,4.899,497.814,0,489.46,0H22.26C13.969,0,6.841,4.771,3.659,12.457    C0.47,20.16,2.152,28.887,7.947,34.676l64,64c3.898,3.904,8.977,6.051,14.313,6.051h339.2c5.329,0,10.415-2.147,14.319-6.051    l64-64C509.794,28.666,511.557,20.154,508.374,12.48z M491.438,22.336L427.444,86.33c-0.623,0.617-1.303,0.943-1.984,0.943H86.26    c-0.681,0-1.361-0.326-1.978-0.937l-64-64c-1.222-1.228-0.628-2.886-0.495-3.206c0.692-1.676,2.031-1.676,2.473-1.676h467.2    c1.809,0,2.519,1.071,2.793,1.705C492.566,19.921,492.683,21.091,491.438,22.336z" fill="#c6a49a" data-original="#000000" style=""/>
	</g>
</g>
<g xmlns="http://www.w3.org/2000/svg">
</g>
<g xmlns="http://www.w3.org/2000/svg">
</g>
<g xmlns="http://www.w3.org/2000/svg">
</g>
<g xmlns="http://www.w3.org/2000/svg">
</g>
<g xmlns="http://www.w3.org/2000/svg">
</g>
<g xmlns="http://www.w3.org/2000/svg">
</g>
<g xmlns="http://www.w3.org/2000/svg">
</g>
<g xmlns="http://www.w3.org/2000/svg">
</g>
<g xmlns="http://www.w3.org/2000/svg">
</g>
<g xmlns="http://www.w3.org/2000/svg">
</g>
<g xmlns="http://www.w3.org/2000/svg">
</g>
<g xmlns="http://www.w3.org/2000/svg">
</g>
<g xmlns="http://www.w3.org/2000/svg">
</g>
<g xmlns="http://www.w3.org/2000/svg">
</g>
<g xmlns="http://www.w3.org/2000/svg">
</g>
</g></svg>
