<svg id="Image" height="512" viewBox="0 0 64 64" width="512" xmlns="http://www.w3.org/2000/svg"><g><path d="m52 7h-40c-2.757 0-5 2.243-5 5v40c0 2.757 2.243 5 5 5h40c2.757 0 5-2.243 5-5v-40c0-2.757-2.243-5-5-5zm3 45c0 1.654-1.346 3-3 3h-40c-1.654 0-3-1.346-3-3v-40c0-1.654 1.346-3 3-3h40c1.654 0 3 1.346 3 3z"/><path d="m32 12c-5.876 0-11.808 2.789-15.595 7.792-.993 1.315-.062 3.208 1.588 3.208h28.014c1.644 0 2.586-1.888 1.586-3.21-3.726-4.922-9.61-7.79-15.593-7.79zm1.388 8.999 1.56-4.682c.418-1.252-1.476-1.891-1.896-.633l-1.772 5.315-13.28-.001c.857-1.132 1.844-2.144 2.927-3.025l.571.786c.778 1.069 2.397-.105 1.618-1.176l-.569-.783c.982-.63 2.024-1.158 3.108-1.583l.296.911c.41 1.262 2.312.644 1.902-.618l-.298-.916c1.122-.299 2.275-.493 3.444-.562v.968c0 1.322 2 1.324 2 0v-.97c1.169.069 2.322.263 3.444.562l-.298.916c-.41 1.262 1.491 1.88 1.902.618l.296-.91c1.083.425 2.126.953 3.107 1.584l-.568.782c-.789 1.084.851 2.231 1.617 1.176l.57-.784c1.083.882 2.07 1.894 2.927 3.026z"/></g></svg>