<svg id="Capa_1" enable-background="new 0 0 512.015 512.015" viewBox="0 0 512.015 512.015" xmlns="http://www.w3.org/2000/svg">
<path d="m460.502 347.905-28.25-27.197c3.959-2.378 7.844-4.938 11.631-7.73 8.891-6.555 10.784-19.075 4.229-27.966-6.554-8.891-19.075-10.784-27.966-4.229-8.723 6.431-18.118 11.326-28.106 14.698.467-3.502.807-7.057.957-10.635.307-7.32.131-14.766-.49-22.292 31.992-43.1 42.652-93.398 46.204-121.918 1.979 1.296 3.957 2.597 5.919 3.924 17.118 11.571 27.352 30.813 27.374 51.469.006 5.634-1.432 13.14-3.942 20.595-3.526 10.468 2.101 21.812 12.568 25.338 10.469 3.525 21.813-2.101 25.338-12.569 2.761-8.195 6.049-20.643 6.036-33.407-.037-33.943-16.85-65.557-44.974-84.567-84.344-57.013-183.547-88.411-279.334-88.411-73.739 0-126.757 12.363-157.581 36.747-19.295 15.262-29.973 35.493-30.099 57.001-.126 4.333.212 20.314 11.085 31.713 6.578 6.895 15.369 10.539 25.425 10.539h45.565l-14.48 30.373c-10.729 22.506-25.108 42.856-42.738 60.485-16.029 16.03-24.857 37.342-24.857 60.012v23.13c0 11.046 8.954 20 20 20s20-8.954 20-20v-23.13c0-11.985 4.667-23.253 13.143-31.728 20.855-20.856 37.867-44.931 50.561-71.556l13.297-27.891v70.435c0 11.985-4.667 23.253-13.143 31.728-16.029 16.03-24.857 37.343-24.857 60.013v22.13c0 11.046 8.954 20 20 20s20-8.954 20-20v-22.13c0-11.985 4.667-23.253 13.143-31.728 16.029-16.03 24.857-37.343 24.857-60.013v-24.696c10.838 14.238 23.012 29.143 37 43.393v57.585c0 20.745 7.572 40.724 21.322 56.255l21.405 24.18c7.27 8.212 11.272 18.773 11.272 29.741v33.412c0 11.046 8.954 20 20 20s20-8.954 20-20v-33.412c0-20.745-7.572-40.724-21.322-56.255l-21.405-24.18c-7.27-8.212-11.272-18.773-11.272-29.741v-23.412c11.794 8.238 23.889 15.144 36.336 20.75l42.801 46.01c25.706 27.209 39.863 62.809 39.863 100.24 0 11.046 8.954 20 20 20s20-8.954 20-20c0-47.015-19.689-93.978-51.627-128.512 5.102.333 10.888.512 16.049.512 11.843 0 23.267-1.291 34.241-3.839l41.082 39.553c24.947 24.019 39.256 57.655 39.256 92.286 0 11.046 8.954 20 20 20s20-8.954 20-20c-.003-45.445-18.779-89.584-51.516-121.103zm-420.487-228.897c0-11 5.158-20.163 14.916-27.882 4.605-3.643 10.826-7.485 19.209-11.119 4.18 8.098 9.105 21.023 10.873 39.001zm109.394 28.444c-8.004-9.674-15.717-17.365-23.881-22.298-.992-24.136-6.491-42.869-12.416-56.352 14.214-2.605 31.256-4.523 51.679-5.347.596 20.988-.951 56.77-15.382 83.997zm52.405 69.196c-9.753-11.836-18.582-23.786-26.75-35.017 7.152-9.721 12.658-20.467 16.862-31.57 7.037 12.798 13.013 28.731 13.089 46.034.03 6.571-1.047 13.444-3.201 20.553zm1.783-119.02c1.271-12.923 1.455-24.76 1.228-34.251 13.931.589 27.918 1.895 41.897 3.889.211 2.825 2.511 39.214-13.833 75.304-9.245-20.62-21.646-36.361-29.292-44.942zm65.084 179.133c-13.475-7.995-25.664-17.505-36.787-27.829 8.464-17.339 12.864-34.536 13.098-51.182 5.433-6.388 10.171-13 14.305-19.708 7.893 18.708 15.864 43.646 15.718 67.845-.068 11.288-2.199 21.622-6.334 30.874zm11.177-147.202c6.021-22.624 7.142-42.667 7.121-54.643 12.696 3.021 25.328 6.619 37.851 10.745-.221 7.779-2.323 55.166-20.88 97.63-8.573-25.838-19.698-46.173-24.092-53.732zm73.175 153.612c-.24 5.731-1.274 11.81-2.588 17.695-16.356-.61-31.409-3.341-45.309-7.718 6.392-14.341 9.779-30.287 9.88-47.019.008-1.265-.007-2.529-.032-3.793 8.83-10.959 16.097-23.016 22.077-35.435 11.407 25.86 16.985 52.081 15.972 76.27zm26.634-77.442c-6.182-16.89-14.426-33.665-24.59-49.872 5.516-22.248 7.922-42.255 8.969-55.333 12.328 5.298 24.491 11.122 36.433 17.476-.117 4.589-1.7 45.765-20.812 87.729z"/><path d="m460.502 347.905-28.25-27.197c3.959-2.378 7.844-4.938 11.631-7.73 8.891-6.555 10.784-19.075 4.229-27.966-6.554-8.891-19.075-10.784-27.966-4.229-8.723 6.431-18.118 11.326-28.106 14.698.467-3.502.807-7.057.957-10.635.307-7.32.131-14.766-.49-22.292 31.992-43.1 42.652-93.398 46.204-121.918 1.979 1.296 3.957 2.597 5.919 3.924 17.118 11.571 27.352 30.813 27.374 51.469.006 5.634-1.432 13.14-3.942 20.595-3.526 10.468 2.101 21.812 12.568 25.338 10.469 3.525 21.813-2.101 25.338-12.569 2.761-8.195 6.049-20.643 6.036-33.407-.037-33.943-16.85-65.557-44.974-84.567-84.344-57.013-183.547-88.411-279.334-88.411-73.739 0-126.757 12.363-157.581 36.747-19.295 15.262-29.973 35.493-30.099 57.001-.126 4.333.212 20.314 11.085 31.713 6.578 6.895 15.369 10.539 25.425 10.539h45.565l-14.48 30.373c-10.729 22.506-25.108 42.856-42.738 60.485-16.029 16.03-24.857 37.342-24.857 60.012v23.13c0 11.046 8.954 20 20 20s20-8.954 20-20v-23.13c0-11.985 4.667-23.253 13.143-31.728 20.855-20.856 37.867-44.931 50.561-71.556l13.297-27.891v70.435c0 11.985-4.667 23.253-13.143 31.728-16.029 16.03-24.857 37.343-24.857 60.013v22.13c0 11.046 8.954 20 20 20s20-8.954 20-20v-22.13c0-11.985 4.667-23.253 13.143-31.728 16.029-16.03 24.857-37.343 24.857-60.013v-24.696c10.838 14.238 23.012 29.143 37 43.393v57.585c0 20.745 7.572 40.724 21.322 56.255l21.405 24.18c7.27 8.212 11.272 18.773 11.272 29.741v33.412c0 11.046 8.954 20 20 20s20-8.954 20-20v-33.412c0-20.745-7.572-40.724-21.322-56.255l-21.405-24.18c-7.27-8.212-11.272-18.773-11.272-29.741v-23.412c11.794 8.238 23.889 15.144 36.336 20.75l42.801 46.01c25.706 27.209 39.863 62.809 39.863 100.24 0 11.046 8.954 20 20 20s20-8.954 20-20c0-47.015-19.689-93.978-51.627-128.512 5.102.333 10.888.512 16.049.512 11.843 0 23.267-1.291 34.241-3.839l41.082 39.553c24.947 24.019 39.256 57.655 39.256 92.286 0 11.046 8.954 20 20 20s20-8.954 20-20c-.003-45.445-18.779-89.584-51.516-121.103zm-420.487-228.897c0-11 5.158-20.163 14.916-27.882 4.605-3.643 10.826-7.485 19.209-11.119 4.18 8.098 9.105 21.023 10.873 39.001zm109.394 28.444c-8.004-9.674-15.717-17.365-23.881-22.298-.992-24.136-6.491-42.869-12.416-56.352 14.214-2.605 31.256-4.523 51.679-5.347.596 20.988-.951 56.77-15.382 83.997zm52.405 69.196c-9.753-11.836-18.582-23.786-26.75-35.017 7.152-9.721 12.658-20.467 16.862-31.57 7.037 12.798 13.013 28.731 13.089 46.034.03 6.571-1.047 13.444-3.201 20.553zm1.783-119.02c1.271-12.923 1.455-24.76 1.228-34.251 13.931.589 27.918 1.895 41.897 3.889.211 2.825 2.511 39.214-13.833 75.304-9.245-20.62-21.646-36.361-29.292-44.942zm65.084 179.133c-13.475-7.995-25.664-17.505-36.787-27.829 8.464-17.339 12.864-34.536 13.098-51.182 5.433-6.388 10.171-13 14.305-19.708 7.893 18.708 15.864 43.646 15.718 67.845-.068 11.288-2.199 21.622-6.334 30.874zm11.177-147.202c6.021-22.624 7.142-42.667 7.121-54.643 12.696 3.021 25.328 6.619 37.851 10.745-.221 7.779-2.323 55.166-20.88 97.63-8.573-25.838-19.698-46.173-24.092-53.732zm73.175 153.612c-.24 5.731-1.274 11.81-2.588 17.695-16.356-.61-31.409-3.341-45.309-7.718 6.392-14.341 9.779-30.287 9.88-47.019.008-1.265-.007-2.529-.032-3.793 8.83-10.959 16.097-23.016 22.077-35.435 11.407 25.86 16.985 52.081 15.972 76.27zm26.634-77.442c-6.182-16.89-14.426-33.665-24.59-49.872 5.516-22.248 7.922-42.255 8.969-55.333 12.328 5.298 24.491 11.122 36.433 17.476-.117 4.589-1.7 45.765-20.812 87.729z"/></svg>