<svg version="1.1" id="Capa_1" xmlns="http://www.w3.org/2000/svg" x="0px" y="0px"
	 viewBox="0 0 469.333 469.333">
    <g>
        <path d="M466.204,87.792L381.417,3.125c-4.173-4.167-10.932-4.167-15.105,0c-4.173,4.167-4.173,10.917,0,15.083L379.122,31
                l-70.35,70.25l-44.855-44.792c-4.173-4.167-10.932-4.167-15.105,0c-4.173,4.167-4.173,10.917,0,15.083L273.305,96L67.22,301.792
                c-2.003,2-3.129,4.708-3.129,7.542c0,22.622,8.202,43.164,21.358,59.589l-82.32,82.203c-4.173,4.167-4.173,10.917,0,15.083
                c2.086,2.083,4.819,3.125,7.552,3.125c2.733,0,5.466-1.042,7.552-3.125l82.32-82.203c16.448,13.138,37.019,21.328,59.673,21.328
                c2.837,0,5.55-1.125,7.552-3.125l206.084-205.792l24.493,24.458c2.086,2.083,4.819,3.125,7.552,3.125s5.466-1.042,7.552-3.125
                c4.173-4.167,4.173-10.917,0-15.083l-46.524-46.458l70.35-70.25l13.811,13.792c2.086,2.083,4.819,3.125,7.552,3.125
                s5.466-1.042,7.552-3.125C470.376,98.708,470.376,91.958,466.204,87.792z M135.542,327.542c-2.083,2.083-4.813,3.125-7.542,3.125
                c-2.729,0-5.458-1.042-7.542-3.125l-19.115-19.115c-4.167-4.167-4.167-10.917,0-15.083c4.167-4.167,10.917-4.167,15.083,0
                l19.115,19.115C139.708,316.625,139.708,323.375,135.542,327.542z M167.542,274.208c-2.083,2.083-4.813,3.125-7.542,3.125
                c-2.729,0-5.458-1.042-7.542-3.125l-8.448-8.448c-4.167-4.167-4.167-10.917,0-15.083c4.167-4.167,10.917-4.167,15.083,0
                l8.448,8.448C171.708,263.292,171.708,270.042,167.542,274.208z M220.875,242.208c-2.083,2.083-4.813,3.125-7.542,3.125
                c-2.729,0-5.458-1.042-7.542-3.125l-19.115-19.115c-4.167-4.167-4.167-10.917,0-15.083c4.167-4.167,10.917-4.167,15.083,0
                l19.115,19.115C225.042,231.292,225.042,238.042,220.875,242.208z M252.875,188.875c-2.083,2.083-4.813,3.125-7.542,3.125
                c-2.729,0-5.458-1.042-7.542-3.125l-8.448-8.448c-4.167-4.167-4.167-10.917,0-15.083c4.167-4.167,10.917-4.167,15.083,0
                l8.448,8.448C257.042,177.958,257.042,184.708,252.875,188.875z" />
        </g>
</svg>
