<svg id="svg8" height="512" viewBox="0 0 16.933333 16.933333" width="512" xmlns="http://www.w3.org/2000/svg" xmlns:svg="http://www.w3.org/2000/svg"><g id="layer1" transform="translate(0 -280.067)"><path id="path826" d="m4.2126627 282.17354c-.275135.008-.5363077.12299-.7281209.3204l-2.1156331 2.11511c-.41417425.41349-.41417425 1.08461 0 1.4981l2.1156331 2.11718c.998723 1.00378 2.5018759-.49936 1.4980997-1.49809l-.3110921-.31058h5.9123006c1.777259 0 3.173966 1.39877 3.173966 3.17603s-1.396707 3.17552-3.173966 3.17552h-2.1171834c-1.4699785 0-1.4699785 2.11512 0 2.11512h2.1171834c2.913276 0 5.29115-2.37736 5.29115-5.29064s-2.377874-5.29115-5.29115-5.29115h-5.9117838l.3105753-.31057c.6917381-.67331.1949074-1.84536-.7699788-1.81643z" font-variant-ligatures="normal" font-variant-position="normal" font-variant-caps="normal" font-variant-numeric="normal" font-variant-alternates="normal" font-feature-settings="normal" text-indent="0" text-align="start" text-decoration-line="none" text-decoration-style="solid" text-decoration-color="rgb(0,0,0)" text-transform="none" text-orientation="mixed" white-space="normal" shape-padding="0" isolation="auto" mix-blend-mode="normal" solid-color="rgb(0,0,0)" solid-opacity="1" vector-effect="none"/></g></svg>