<svg height="512" viewBox="0 0 128 128" width="512" xmlns="http://www.w3.org/2000/svg"><g><path d="m17.107 88.6c-2.209-.163-3.9 2.2-5.312 3.532a4.3 4.3 0 0 0 0 6.085l15.779 15.783a4.318 4.318 0 0 0 6.085 0l2.271-2.27a4.319 4.319 0 0 0 0-6.086l-1.243-1.244 3.735-3.735 5.042 5.042a5.9 5.9 0 0 0 8.514-8.159l40.956-40.956c4.428-4.306 1.587-10.585-1.294-14.955l3.294-4.318a1.749 1.749 0 0 0 -.155-2.3l-.767-.768 18.524-18.524a1.75 1.75 0 0 0 -2.475-2.474l-18.526 18.528-.763-.767a1.746 1.746 0 0 0 -2.3-.157l-4.307 3.282c-4.313-2.83-10.7-5.732-14.971-1.268-11.462 11.46-25.494 25.496-36.975 36.975l-3.966 3.966a5.9 5.9 0 0 0 -8.168 8.513l5.053 5.053-3.738 3.736c-1.12-1.214-2.5-2.614-4.293-2.514zm72.266-54.03 1.85 1.843-1.771 2.322a22.691 22.691 0 0 0 -2.4-2.4zm-55.473 38.548a35.849 35.849 0 0 1 10.98 7.323 1.75 1.75 0 1 0 2.451-2.5 38.767 38.767 0 0 0 -10.781-7.475l7.791-7.79a35.294 35.294 0 0 1 10.975 7.324 1.743 1.743 0 0 0 1.226.5 1.761 1.761 0 0 0 1.225-3 38.774 38.774 0 0 0 -10.78-7.474l7.79-7.79a35.316 35.316 0 0 1 10.98 7.322 1.75 1.75 0 0 0 2.451-2.5 38.764 38.764 0 0 0 -10.781-7.474l7.79-7.791a35.314 35.314 0 0 1 10.983 7.327 1.75 1.75 0 1 0 2.451-2.5 38.738 38.738 0 0 0 -10.78-7.474l3.8-3.8a4.511 4.511 0 0 1 4.519-1.146 23.088 23.088 0 0 1 15.4 15.37 4.558 4.558 0 0 1 -1.134 4.549l-40.935 40.934-18.784-18.776zm-11.34 6.733a2.419 2.419 0 0 1 1.7-4.1c1.14-.096 2.04 1.049 2.769 1.769l22.312 22.3a2.42 2.42 0 0 1 .008 3.405 2.486 2.486 0 0 1 -3.41 0zm5.052 10 8.335 8.335-3.735 3.735-8.335-8.335zm3.364 15.784 2.479 2.478a.8.8 0 0 1 0 1.136l-2.27 2.27a.8.8 0 0 1 -1.136 0l-15.78-15.78a.794.794 0 0 1 0-1.135l2.27-2.27a.794.794 0 0 1 1.136 0z"/><path d="m117.468 38.973c0-2.666-3.536-9.592-4.62-11.651a1.763 1.763 0 0 0 -3.1 0c-1.084 2.059-4.621 8.985-4.621 11.651.29 8.162 12.051 8.166 12.341 0zm-8.839 0c0-.922 1.213-3.888 2.67-6.933 1.456 3.045 2.669 6.011 2.669 6.933a2.67 2.67 0 0 1 -5.339 0z"/></g></svg>