<?xml version="1.0"?>
<svg xmlns="http://www.w3.org/2000/svg" version="1.1" x="0" y="0" viewBox="0 0 512 512" style="enable-background:new 0 0 512 512" xml:space="preserve" class="">
    <g>
        <g xmlns="http://www.w3.org/2000/svg">
            <path d="m154.53 113.145 22.281 66.855h61.163l43.867-65.801 24.961 16.641-32.775 49.16h61.163l22.28-66.855c-19.673-8.218-60.982-23.145-101.47-23.145s-81.797 14.927-101.47 23.145z" fill="#4c373c" data-original="#000000" style=""/>
            <path d="m467 0h-422c-24.814 0-45 20.186-45 45 0 .732 0 3.26 30.117 425.237 1.67 23.423 21.387 41.763 44.883 41.763h362c23.496 0 43.213-18.34 44.883-41.763.081-1.147-1.887 26.646 30.117-425.237 0-24.814-20.186-45-45-45zm-407 90v-30h30v30zm60 362h-30v-30h30zm151 0h-30v-211h30zm-115.811-242-37.529-112.603c56.404-27.928 102.369-37.397 138.34-37.397 35.455 0 81.405 9.206 138.34 37.397l-37.529 112.603zm266.811 242h-30v-30h30zm30-362h-30v-30h30z" fill="#4c373c" data-original="#000000" style=""/>
        </g>
    </g>
</svg>
