<svg version="1.1" id="Capa_1" xmlns="http://www.w3.org/2000/svg" xmlns:xlink="http://www.w3.org/1999/xlink" x="0px" y="0px"
	 viewBox="0 0 512 512" style="enable-background:new 0 0 512 512;" xml:space="preserve">
<g>
	<g>
		<path d="M448,300.308h-39.385v-64c0-84.153-68.462-152.615-152.615-152.615s-152.615,68.462-152.615,152.615v64H64
			c-35.29,0-64,28.71-64,64s28.71,64,64,64h73.846c51.577,0,93.539-41.961,93.539-93.538v-98.462
			c0-13.573,11.042-24.615,24.615-24.615s24.615,11.042,24.615,24.615v98.462c0,51.577,41.961,93.538,93.539,93.538H448
			c35.29,0,64-28.71,64-64S483.29,300.308,448,300.308z M448,398.769h-73.846c-35.29,0-64-28.71-64-64v-98.462
			c0-29.86-24.293-54.154-54.154-54.154s-54.154,24.293-54.154,54.154v98.462c0,35.29-28.71,64-64,64H64
			c-19.002,0-34.462-15.459-34.462-34.462c0-19.002,15.459-34.462,34.462-34.462h9.846v24.615c0,8.157,6.613,14.769,14.769,14.769
			c8.157,0,14.769-6.613,14.769-14.769v-24.615h4.923c13.573,0,24.615-11.042,24.615-24.615v-34.462h24.615
			c8.157,0,14.769-6.613,14.769-14.769c0-8.157-6.613-14.769-14.769-14.769h-24.615v-4.923c0-23.557,6.658-45.587,18.183-64.315
			l10.904,10.904c2.884,2.884,6.664,4.326,10.443,4.326c3.779,0,7.56-1.442,10.443-4.326c5.768-5.767,5.768-15.119,0-20.887
			l-13.279-13.279c18.932-18.676,43.867-31.276,71.614-34.61v23.726c0,8.157,6.613,14.769,14.769,14.769s14.769-6.613,14.769-14.769
			V114.12c27.747,3.334,52.682,15.934,71.614,34.61l-13.28,13.279c-5.768,5.767-5.768,15.119,0,20.887
			c2.884,2.884,6.664,4.326,10.443,4.326s7.56-1.442,10.443-4.326l10.904-10.904c11.527,18.728,18.185,40.758,18.185,64.315v4.923
			h-24.615c-8.157,0-14.769,6.613-14.769,14.769c0,8.157,6.613,14.769,14.769,14.769h24.615v34.462
			c0,13.573,11.042,24.615,24.615,24.615H448c19.002,0,34.462,15.459,34.462,34.462C482.462,383.31,467.002,398.769,448,398.769z"/>
	</g>
</g>
<g>
	<g>
		<path d="M457.769,372.706c-0.041-0.482-0.12-0.965-0.219-1.439c-0.09-0.472-0.207-0.945-0.346-1.398
			c-0.147-0.463-0.305-0.924-0.492-1.369c-0.186-0.443-0.393-0.876-0.62-1.3c-0.225-0.432-0.472-0.846-0.738-1.25
			c-0.266-0.394-0.551-0.788-0.857-1.162c-0.305-0.375-0.639-0.738-0.975-1.084c-0.345-0.335-0.709-0.67-1.083-0.975
			c-0.374-0.305-0.768-0.591-1.162-0.856c-0.404-0.267-0.817-0.513-1.251-0.738c-0.423-0.226-0.857-0.433-1.299-0.621
			c-0.443-0.186-0.907-0.345-1.36-0.492c-0.463-0.138-0.934-0.256-1.408-0.354c-0.472-0.089-0.955-0.167-1.438-0.218
			c-0.955-0.098-1.94-0.098-2.905,0c-0.472,0.05-0.955,0.129-1.428,0.218c-0.472,0.098-0.945,0.217-1.408,0.354
			c-0.453,0.148-0.916,0.306-1.359,0.492c-0.443,0.187-0.886,0.394-1.31,0.621c-0.423,0.225-0.837,0.472-1.241,0.738
			c-0.404,0.266-0.788,0.551-1.162,0.856c-0.375,0.306-0.738,0.64-1.084,0.975c-0.335,0.346-0.67,0.709-0.975,1.084
			c-0.305,0.374-0.591,0.767-0.856,1.162c-0.267,0.404-0.513,0.817-0.738,1.25c-0.226,0.424-0.433,0.857-0.621,1.3
			c-0.186,0.443-0.345,0.906-0.492,1.369c-0.138,0.453-0.256,0.926-0.354,1.398c-0.089,0.473-0.167,0.956-0.218,1.439
			c-0.046,0.482-0.066,0.965-0.066,1.447c0,0.482,0.02,0.975,0.068,1.456c0.05,0.473,0.129,0.956,0.218,1.428
			c0.098,0.473,0.217,0.945,0.353,1.408c0.148,0.453,0.306,0.917,0.492,1.36c0.187,0.442,0.394,0.876,0.621,1.299
			c0.225,0.433,0.472,0.847,0.738,1.251c0.266,0.393,0.551,0.788,0.856,1.162c0.306,0.374,0.64,0.738,0.975,1.083
			c0.346,0.336,0.709,0.671,1.084,0.975c0.374,0.306,0.767,0.592,1.162,0.857c0.404,0.267,0.817,0.513,1.25,0.738
			c0.424,0.226,0.857,0.433,1.3,0.62c0.443,0.187,0.906,0.346,1.359,0.492c0.463,0.139,0.935,0.256,1.408,0.354
			c0.473,0.089,0.956,0.167,1.428,0.217c0.482,0.049,0.975,0.069,1.457,0.069s0.964-0.021,1.447-0.069
			c0.483-0.048,0.965-0.128,1.438-0.217c0.473-0.099,0.945-0.217,1.408-0.354c0.453-0.147,0.917-0.305,1.36-0.492
			c0.442-0.186,0.876-0.393,1.299-0.62c0.433-0.225,0.847-0.472,1.251-0.738c0.393-0.266,0.788-0.551,1.162-0.857
			c0.374-0.305,0.738-0.639,1.083-0.975c0.336-0.345,0.671-0.709,0.975-1.083c0.306-0.374,0.592-0.768,0.857-1.162
			c0.267-0.404,0.513-0.817,0.738-1.251c0.226-0.423,0.433-0.857,0.62-1.299c0.187-0.443,0.346-0.907,0.492-1.36
			c0.139-0.463,0.256-0.934,0.346-1.408c0.099-0.472,0.177-0.955,0.217-1.428c0.049-0.482,0.079-0.974,0.079-1.456
			C457.848,373.671,457.819,373.189,457.769,372.706z"/>
	</g>
</g>
</svg>
